<?xml version="1.0" encoding="UTF-8"?>
<svg version="1.1" xmlns="http://www.w3.org/2000/svg" width="672" height="118">
<path d="M0 0 C10.36712147 6.42864573 19.75650907 13.91486995 28.96777344 21.88183594 C33.09086738 25.41042534 37.3256906 28.80689192 41.5390625 32.2265625 C42.19648438 31.73349609 42.19648438 31.73349609 42.8671875 31.23046875 C44.24406516 30.1978105 45.62323924 29.16821138 47.00390625 28.140625 C48.80394023 26.78158548 50.5861378 25.39877759 52.35546875 24 C61.13553118 17.1545276 69.41359616 11.17514972 80.97265625 11.81640625 C88.22199739 12.97497675 92.41962177 16.66126323 97.09375 22.12890625 C101.20667573 28.09820657 101.37118728 34.19291834 100.5390625 41.2265625 C98.31160449 48.63415542 94.28213516 53.50490509 87.5390625 57.2265625 C81.78882241 59.67573883 76.54019221 59.69820517 70.5390625 58.2265625 C61.56317347 54.61220005 51.33454854 47.72523279 44.9140625 40.36328125 C43.59016393 39.01224809 43.59016393 39.01224809 41.625 39.296875 C38.94656596 40.49063399 37.28227563 42.07010213 35.1640625 44.1015625 C17.32924012 60.60073739 -8.15018403 82.78282627 -33.71875 82.44140625 C-45.62346622 81.50870056 -57.42165221 76.08481864 -65.4609375 67.2265625 C-75.22178645 54.41170559 -78.05720239 42.04949451 -76.4609375 26.2265625 C-74.12696002 13.71423351 -66.62049067 3.66806229 -56.4609375 -3.7734375 C-36.65318599 -15.69448856 -18.73555392 -11.28075924 0 0 Z " fill="#E6C785" transform="translate(76.4609375,10.7734375)"/>
<path d="M0 0 C0.67289063 -0.01611328 1.34578125 -0.03222656 2.0390625 -0.04882812 C7.13295027 -0.05374501 10.52623353 1.10474285 15 3.3125 C12.25 9.0625 12.25 9.0625 10 11.3125 C10 12.3025 10 13.2925 10 14.3125 C9.42156783 17.9840221 8.35531103 21.19481202 6.9375 24.625 C6.57527344 25.50800781 6.21304688 26.39101563 5.83984375 27.30078125 C5.56269531 27.96464844 5.28554688 28.62851562 5 29.3125 C5.99 28.9825 6.98 28.6525 8 28.3125 C8.75 31 8.75 31 9 34.3125 C7.0625 37.1875 7.0625 37.1875 5 39.3125 C8.18490007 39.5898501 8.18490007 39.5898501 11 37.3125 C11.66 38.9625 12.32 40.6125 13 42.3125 C13.66 42.3125 14.32 42.3125 15 42.3125 C15.70236785 44.49764443 16.10403468 45.90329691 15.53125 48.15625 C14.94452292 50.53767167 14.90149499 52.61415934 14.9375 55.0625 C14.94652344 55.86171875 14.95554688 56.6609375 14.96484375 57.484375 C14.97644531 58.08765625 14.98804688 58.6909375 15 59.3125 C15.10957031 58.57644531 15.21914063 57.84039062 15.33203125 57.08203125 C16.90685413 47.38982865 16.90685413 47.38982865 20 43.3125 C20.33 43.9725 20.66 44.6325 21 45.3125 C20.24766013 47.23092092 19.49455408 49.14904716 18.73641968 51.06518555 C17.55089476 54.68302381 17.52065572 58.18831015 17.48828125 61.96875 C17.47033005 62.75648804 17.45237885 63.54422607 17.43388367 64.35583496 C17.38023695 66.84133749 17.34603384 69.3266532 17.3125 71.8125 C17.27928643 73.51044242 17.2447931 75.20836032 17.20898438 76.90625 C17.12453777 81.04153075 17.05751144 85.17676052 17 89.3125 C5.52706221 94.29434609 -4.15031878 94.53363108 -16 90.3125 C-29.54853296 84.83287111 -37.56205763 75.58893821 -43.4375 62.3125 C-47.27197464 50.74267827 -46.43596318 36.16834363 -41 25.3125 C-34.27442644 13.41206803 -24.59651051 5.54536701 -11.6953125 1.19921875 C-7.74245094 0.25069911 -4.03893976 -0.01934358 0 0 Z M14 12.3125 C14 13.3025 14 14.2925 14 15.3125 C13.34 14.9825 12.68 14.6525 12 14.3125 C12.66 13.6525 13.32 12.9925 14 12.3125 Z " fill="#1E807A" transform="translate(45,-0.3125)"/>
<path d="M0 0 C0.91808441 0.00424484 1.83616882 0.00848969 2.78207397 0.01286316 C5.67534428 0.02947378 8.5678826 0.067091 11.4609375 0.10546875 C13.43879193 0.12053843 15.41665742 0.1342228 17.39453125 0.14648438 C22.20860952 0.17931922 27.02215001 0.23097637 31.8359375 0.29296875 C31.8359375 3.92296875 31.8359375 7.55296875 31.8359375 11.29296875 C26.2259375 11.29296875 20.6159375 11.29296875 14.8359375 11.29296875 C16.0940625 12.03546875 17.3521875 12.77796875 18.6484375 13.54296875 C25.18223296 17.69873971 25.18223296 17.69873971 26.33203125 22.26171875 C27.27058914 27.9124178 26.64644709 32.28674855 23.8359375 37.29296875 C19.41277908 43.01705611 13.3184188 45.53315465 6.3984375 47.04296875 C-0.22181881 47.50754814 -6.63522194 47.6674615 -13.1640625 46.29296875 C-14.83252984 47.98792831 -14.83252984 47.98792831 -16.1640625 50.29296875 C-15.80022624 52.90475297 -15.80022624 52.90475297 -15.1640625 55.29296875 C-14.18646973 55.30231445 -13.20887695 55.31166016 -12.20166016 55.32128906 C-8.52966896 55.36155225 -4.85848407 55.42740541 -1.18701172 55.50048828 C0.39361105 55.52848954 1.97436841 55.54980639 3.55517578 55.56396484 C21.37430539 55.73302679 21.37430539 55.73302679 28.8359375 60.29296875 C32.46339936 64.09737997 33.58355826 67.79050906 33.9296875 72.921875 C33.70383137 78.63415286 32.07791608 82.86469338 28.3359375 87.16796875 C20.14936372 92.96715357 9.49505809 92.77128664 -0.11645508 92.68408203 C-2.22737958 92.66796251 -4.33639796 92.68403099 -6.44726562 92.703125 C-15.3376236 92.71708171 -24.15986434 92.34227127 -31.7265625 87.16796875 C-34.55239643 83.83493386 -35.20160081 81.80230109 -35.39453125 77.5078125 C-35.01515016 73.86189596 -33.62430715 71.94246299 -31.1640625 69.29296875 C-27.88688138 67.28653133 -26.01165788 66.29296875 -22.1640625 66.29296875 C-22.1640625 65.63296875 -22.1640625 64.97296875 -22.1640625 64.29296875 C-23.0921875 63.85984375 -23.0921875 63.85984375 -24.0390625 63.41796875 C-26.1640625 62.29296875 -26.1640625 62.29296875 -28.1640625 60.29296875 C-28.6015625 56.98046875 -28.6015625 56.98046875 -28.1640625 53.29296875 C-25.31837899 49.71553805 -22.16188772 47.46321673 -18.1640625 45.29296875 C-18.77894531 44.84566406 -19.39382813 44.39835937 -20.02734375 43.9375 C-25.68530395 39.70530967 -29.67069669 36.41517493 -31.1640625 29.29296875 C-31.87743699 21.86685727 -31.32198409 15.62238649 -27.1640625 9.29296875 C-20.31081428 0.98545035 -10.17882868 -0.18176691 0 0 Z M-16.9765625 16.04296875 C-19.37040628 20.57867276 -19.52580943 24.1072427 -18.0390625 28.98046875 C-15.682838 33.14313204 -13.45403078 35.55027634 -8.8515625 37.04296875 C-0.70073995 37.8011848 5.36014538 37.27683016 12.2734375 32.66796875 C14.6533679 29.05047454 15.00730784 25.57722736 14.8359375 21.29296875 C13.6122911 17.23964005 12.25202888 15.64433481 9.0234375 12.91796875 C1.08530798 8.86409492 -10.51738241 9.806519 -16.9765625 16.04296875 Z M-23.1640625 70.29296875 C-24.34649897 73.6316129 -24.60851333 75.29295439 -23.1640625 78.54296875 C-17.42584127 83.56391232 -8.93745392 82.62654302 -1.7890625 82.60546875 C-0.16097656 82.62963867 -0.16097656 82.62963867 1.5 82.65429688 C8.02509841 82.65823715 13.89841671 82.19431477 19.8359375 79.29296875 C22.20004238 77.35565347 22.20004238 77.35565347 22.1484375 73.85546875 C22.15454481 70.38757028 22.15454481 70.38757028 20.4609375 68.41796875 C16.87441573 65.93499214 13.64154487 66.09838988 9.4140625 66.0546875 C8.67645691 66.04661575 7.93885132 66.03854401 7.17889404 66.03022766 C5.61538034 66.01638824 4.05183644 66.00566544 2.48828125 65.99780273 C0.10878305 65.98063359 -2.26930943 65.93675488 -4.6484375 65.89257812 C-6.16926064 65.88244692 -7.69009557 65.87393215 -9.2109375 65.8671875 C-9.91740417 65.84967941 -10.62387085 65.83217133 -11.35174561 65.81413269 C-16.40888259 65.83609034 -19.31013497 67.05169998 -23.1640625 70.29296875 Z " fill="#000000" transform="translate(323.1640625,24.70703125)"/>
<path d="M0 0 C1.26085419 0.0001133 1.26085419 0.0001133 2.54718018 0.00022888 C3.89426056 0.00797081 3.89426056 0.00797081 5.26855469 0.01586914 C6.19512878 0.01728409 7.12170288 0.01869904 8.07635498 0.02015686 C11.03107961 0.02574715 13.98572802 0.03829789 16.94042969 0.05102539 C18.94563693 0.05604165 20.95084535 0.06060433 22.95605469 0.06469727 C27.86754232 0.07571341 32.77897309 0.09297139 37.69042969 0.11352539 C37.69042969 3.74352539 37.69042969 7.37352539 37.69042969 11.11352539 C32.08042969 11.11352539 26.47042969 11.11352539 20.69042969 11.11352539 C21.92792969 11.81477539 23.16542969 12.51602539 24.44042969 13.23852539 C28.32813874 15.6993625 30.68953474 17.86162362 32.69042969 22.11352539 C33.47105788 29.13917909 32.03321723 34.15058821 27.56542969 39.80102539 C19.23150208 46.50440194 10.10921186 47.291391 -0.24707031 47.17602539 C-1.02630859 47.17151367 -1.80554688 47.16700195 -2.60839844 47.16235352 C-4.508823 47.15069447 -6.40920737 47.13276416 -8.30957031 47.11352539 C-10.07386567 49.98509231 -10.07386567 49.98509231 -9.86816406 53.25415039 C-9.68382812 53.86774414 -9.49949219 54.48133789 -9.30957031 55.11352539 C-7.8274707 55.13539917 -7.8274707 55.13539917 -6.31542969 55.15771484 C-2.61748718 55.21608874 1.07987105 55.29331563 4.77734375 55.37597656 C6.37164767 55.40904337 7.96606352 55.43713098 9.56054688 55.45996094 C11.86473895 55.49384612 14.16792193 55.54617276 16.47167969 55.60180664 C17.52530701 55.61139153 17.52530701 55.61139153 18.60021973 55.62117004 C25.07817191 55.80970903 30.52591042 57.32544426 35.56542969 61.48852539 C39.07091125 65.81882614 40.16682908 69.35000667 40.00683594 74.99243164 C39.27211979 79.91775101 36.89869766 83.75880069 33.62792969 87.42602539 C25.13188926 92.30672947 15.81118589 92.59501023 6.22021484 92.50463867 C4.19267539 92.48854322 2.16712814 92.50457758 0.13964844 92.52368164 C-8.86533309 92.49717041 -17.53156215 92.03883651 -25.37207031 87.23852539 C-28.55047303 83.75253531 -29.28638221 81.38887092 -29.37207031 76.67602539 C-27.93793382 71.86745009 -25.42214821 69.82349778 -21.30957031 67.11352539 C-18.37207031 65.73852539 -18.37207031 65.73852539 -16.30957031 65.11352539 C-17.11394531 64.59790039 -17.91832031 64.08227539 -18.74707031 63.55102539 C-21.30957031 61.11352539 -21.30957031 61.11352539 -22.43457031 57.73852539 C-22.26839164 52.91934402 -20.74692627 51.40143109 -17.30957031 48.11352539 C-14.49707031 46.23852539 -14.49707031 46.23852539 -12.30957031 45.11352539 C-13.10621094 44.5856543 -13.10621094 44.5856543 -13.91894531 44.04711914 C-19.57933081 40.09104679 -22.54260548 36.67818453 -25.05957031 30.17602539 C-26.04699458 22.02977518 -24.80469074 15.50493735 -20.74707031 8.36352539 C-15.10430599 3.15481987 -7.68968095 -0.02316169 0 0 Z M-10.30957031 15.11352539 C-13.06213046 19.52889491 -13.07362015 24.06761295 -12.30957031 29.11352539 C-10.52108256 33.02584234 -7.96601296 34.84103976 -3.99707031 36.48852539 C3.40890232 37.74377499 9.92112387 37.63782017 16.69042969 34.11352539 C19.70612499 30.950723 20.91936906 28.40942563 21.19042969 24.11352539 C20.94730801 19.87510423 19.52245978 17.31819102 16.69042969 14.11352539 C8.43715268 9.12593353 -2.70116446 8.88846605 -10.30957031 15.11352539 Z M-17.30957031 70.11352539 C-18.69325772 73.2878671 -18.51400596 74.56410459 -17.30957031 77.80102539 C-14.10400364 81.50746185 -10.24786324 81.97046091 -5.54101562 82.31787109 C-2.33629854 82.4186243 0.85920011 82.43547772 4.06542969 82.42602539 C5.69351563 82.45019531 5.69351563 82.45019531 7.35449219 82.47485352 C13.85150351 82.47877683 19.79673728 82.06657897 25.69042969 79.11352539 C28.04596622 76.96891623 28.04596622 76.96891623 28.69042969 74.11352539 C28.20280707 70.90036016 28.20280707 70.90036016 26.69042969 68.11352539 C23.0196933 65.6663678 20.20208171 65.79052261 15.95214844 65.77758789 C14.81456841 65.76760269 14.81456841 65.76760269 13.65400696 65.75741577 C12.04939191 65.74729501 10.44473482 65.74259857 8.84008789 65.74291992 C6.3969081 65.73855926 3.95555398 65.70227215 1.51269531 65.66430664 C-0.0491475 65.65843562 -1.61099885 65.65446813 -3.17285156 65.65258789 C-3.89805496 65.63821686 -4.62325836 65.62384583 -5.37043762 65.60903931 C-10.47617658 65.65453219 -13.39768791 66.86588264 -17.30957031 70.11352539 Z " fill="#000000" transform="translate(567.3095703125,24.886474609375)"/>
<path d="M0 0 C5.30172568 4.29289529 8.05610635 9.84942542 9.6875 16.375 C9.6875 22.315 9.6875 28.255 9.6875 34.375 C-7.1425 34.375 -23.9725 34.375 -41.3125 34.375 C-38.00304356 45.30145733 -38.00304356 45.30145733 -30.0859375 52.5078125 C-26.74582927 53.55218437 -23.87261858 53.67610711 -20.375 53.6875 C-19.19035156 53.70425781 -18.00570312 53.72101563 -16.78515625 53.73828125 C-12.90398102 53.33226404 -10.5815773 52.49220555 -7.3125 50.375 C-5.57162423 48.17261821 -5.57162423 48.17261821 -4.4375 45.6875 C-3.385625 43.5528125 -3.385625 43.5528125 -2.3125 41.375 C1.6475 41.375 5.6075 41.375 9.6875 41.375 C9.38855078 49.5961036 6.10906309 55.04116929 0.25 60.75 C-9.69876454 67.05897263 -20.62199077 67.55474554 -31.86328125 65.05859375 C-39.10919789 63.03620872 -44.704372 59.36322725 -49.3125 53.375 C-55.30857773 42.61839994 -56.0270119 29.93776226 -53.62890625 17.9609375 C-50.69375942 9.31382443 -45.51847784 1.69049432 -37.3125 -2.625 C-25.35850178 -7.86279427 -10.93112177 -7.34179821 0 0 Z M-36.625 11.5 C-39.03366155 15.34346984 -39.03366155 15.34346984 -41.3125 24.375 C-28.4425 24.375 -15.5725 24.375 -2.3125 24.375 C-4.08915627 14.36523352 -4.08915627 14.36523352 -10.3125 7.375 C-19.50583299 2.85418609 -29.24685301 4.72008115 -36.625 11.5 Z " fill="#000000" transform="translate(662.3125,28.625)"/>
<path d="M0 0 C5.29157411 4.32946972 8.56933571 8.47414164 9.75 15.25 C10.0089019 19.19939271 9.9831474 23.13343931 9.9453125 27.08984375 C9.9424826 28.21193741 9.93965271 29.33403107 9.93673706 30.49012756 C9.92558775 34.05602918 9.90049251 37.62167494 9.875 41.1875 C9.86496343 43.61262657 9.85583876 46.03775709 9.84765625 48.46289062 C9.82566554 54.3920249 9.79117163 60.32096914 9.75 66.25 C5.46 66.25 1.17 66.25 -3.25 66.25 C-3.58 62.29 -3.91 58.33 -4.25 54.25 C-5.095625 55.4875 -5.94125 56.725 -6.8125 58 C-11.26976163 63.89441608 -16.41341148 66.67183034 -23.65234375 68.0625 C-29.98876946 68.51986607 -37.35590251 67.80951717 -42.875 64.4375 C-47.03123199 60.60939159 -48.90866477 56.74212196 -49.453125 51.171875 C-49.58851684 44.89871952 -48.97497417 39.3534428 -44.703125 34.48828125 C-39.07811503 29.34861506 -33.70653496 27.98968774 -26.1015625 28.0546875 C-25.44417084 28.0575174 -24.78677917 28.06034729 -24.10946655 28.06326294 C-22.03111767 28.07436553 -19.95321634 28.09945014 -17.875 28.125 C-16.45703752 28.13504269 -15.03906821 28.14416627 -13.62109375 28.15234375 C-10.16391963 28.17427195 -6.70700358 28.20873182 -3.25 28.25 C-3.5331556 26.16549283 -3.82685669 24.08241633 -4.125 22 C-4.28742188 20.83984375 -4.44984375 19.6796875 -4.6171875 18.484375 C-5.31764952 14.90423581 -5.88579899 12.20999331 -8.9375 10.0625 C-14.95371588 7.94869442 -20.38542628 7.75601286 -26.25 10.25 C-30.18376314 13.39701051 -32.22544899 16.66812141 -34.25 21.25 C-38.54 21.25 -42.83 21.25 -47.25 21.25 C-45.74408571 12.48831684 -43.36911169 6.16682005 -35.9375 0.875 C-25.31345798 -5.56593487 -10.98604567 -5.91556305 0 0 Z M-35.1875 42.0625 C-36.64361756 45.0603891 -36.7212013 46.95159091 -36.25 50.25 C-34.69211787 53.36576427 -33.35643221 54.83086679 -30.07421875 56.07421875 C-22.60674437 57.89753676 -16.77471181 56.97910391 -9.9375 53.625 C-6.56151398 50.64157049 -4.55696925 47.57068657 -3.25 43.25 C-3.18768016 41.25097118 -3.17597668 39.24862967 -3.25 37.25 C-6.93734775 37.16223815 -10.62442347 37.10935397 -14.3125 37.0625 C-15.35083984 37.03736328 -16.38917969 37.01222656 -17.45898438 36.98632812 C-24.33737145 36.92081968 -29.9289793 37.1432387 -35.1875 42.0625 Z " fill="#000000" transform="translate(273.25,26.75)"/>
<path d="M0 0 C5.01007382 4.09915131 8.2016296 7.93941474 9.75 14.25 C10.01667063 18.23895212 9.98259491 22.21466335 9.9453125 26.2109375 C9.9424826 27.35664215 9.93965271 28.5023468 9.93673706 29.68276978 C9.92557135 33.33028755 9.90047299 36.97755685 9.875 40.625 C9.86496555 43.10286103 9.85584051 45.58072592 9.84765625 48.05859375 C9.82564376 54.12249109 9.79113838 60.18620346 9.75 66.25 C5.79 66.25 1.83 66.25 -2.25 66.25 C-2.58 61.63 -2.91 57.01 -3.25 52.25 C-4.095625 53.631875 -4.94125 55.01375 -5.8125 56.4375 C-10.27088063 63.0164561 -14.14128534 66.0629595 -22 67.6875 C-28.97167741 68.57638887 -35.49645204 68.5278464 -41.64453125 64.796875 C-46.15902114 61.18528309 -48.41156763 58.11902656 -49.25 52.25 C-49.87283075 45.39886178 -48.05850351 40.31054439 -44.625 34.5 C-36.94127416 27.22068078 -27.64442231 27.75057692 -17.6875 28 C-16.28322873 28.02010503 -14.87892952 28.0383487 -13.47460938 28.0546875 C-10.06568219 28.10154561 -6.65821043 28.16714495 -3.25 28.25 C-3.4788383 25.99774934 -3.73389223 23.74815183 -4 21.5 C-4.13921875 20.24703125 -4.2784375 18.9940625 -4.421875 17.703125 C-5.32766537 13.92615006 -6.23262131 12.60746175 -9.25 10.25 C-14.25249552 8.08726697 -19.27563666 7.80408358 -24.4609375 9.42578125 C-27.49108189 10.8217648 -29.22769948 12.63290521 -31.25 15.25 C-31.91 17.23 -32.57 19.21 -33.25 21.25 C-37.54 21.25 -41.83 21.25 -46.25 21.25 C-46.01160687 13.74061637 -44.29590293 8.89921741 -39.25 3.25 C-28.88640989 -5.69839398 -11.82991341 -6.36995337 0 0 Z M-35.25 41.9375 C-36.78419392 45.48532345 -36.43340264 48.67039076 -35.25 52.25 C-32.51383632 55.48364798 -30.62511974 56.16247206 -26.5 57.125 C-19.20549767 57.68929169 -12.95593265 55.86908833 -7.25 51.25 C-3.32650849 46.78533724 -3.13994584 43.08287025 -3.25 37.25 C-6.93734775 37.16223815 -10.62442347 37.10935397 -14.3125 37.0625 C-15.35083984 37.03736328 -16.38917969 37.01222656 -17.45898438 36.98632812 C-24.42460621 36.91998887 -29.73642233 37.28541884 -35.25 41.9375 Z " fill="#000000" transform="translate(452.25,26.75)"/>
<path d="M0 0 C4.81654204 3.72187339 7.20700998 8.27855971 9 14 C9.5101177 18.16954708 9.46845632 22.27722524 9.390625 26.47265625 C9.38496521 27.6363121 9.37930542 28.79996796 9.37347412 29.99888611 C9.35122266 33.68718966 9.30104507 37.37449391 9.25 41.0625 C9.22992059 43.57485569 9.21167235 46.08722672 9.1953125 48.59960938 C9.15139433 54.73345339 9.082443 60.86655772 9 67 C4.71 67 0.42 67 -4 67 C-4.029729 65.01021118 -4.029729 65.01021118 -4.06005859 62.98022461 C-4.1363656 58.03944528 -4.22504403 53.09895083 -4.31738281 48.15844727 C-4.35556906 46.02373903 -4.39043968 43.88896871 -4.421875 41.75415039 C-4.46775077 38.67832314 -4.52570794 35.6029194 -4.5859375 32.52734375 C-4.59748871 31.57915268 -4.60903992 30.63096161 -4.62094116 29.65403748 C-4.78746147 20.47885393 -4.78746147 20.47885393 -9.0625 12.625 C-14.49074894 9.62213889 -19.72889811 9.38223456 -25.6875 11 C-30.40897368 12.78605659 -33.31564338 15.78172531 -36 20 C-36.92056715 22.76170144 -37.14800149 24.52178855 -37.20532227 27.37963867 C-37.22526749 28.26032516 -37.24521271 29.14101166 -37.26576233 30.04838562 C-37.29083107 31.46882927 -37.29083107 31.46882927 -37.31640625 32.91796875 C-37.33718735 33.89034988 -37.35796844 34.86273102 -37.37937927 35.86457825 C-37.44478748 38.97214665 -37.50371929 42.07979985 -37.5625 45.1875 C-37.60569351 47.29362858 -37.64930807 49.39974856 -37.69335938 51.50585938 C-37.80045999 56.67048591 -37.90175219 61.83519778 -38 67 C-42.29 67 -46.58 67 -51 67 C-51 44.56 -51 22.12 -51 -1 C-46.71 -1 -42.42 -1 -38 -1 C-37.67 3.62 -37.34 8.24 -37 13 C-35.948125 11.1746875 -35.948125 11.1746875 -34.875 9.3125 C-27.25615064 -2.76668415 -12.72847024 -7.03340526 0 0 Z " fill="#000000" transform="translate(524,26)"/>
<path d="M0 0 C0 4.95 0 9.9 0 15 C-1.815 15.0825 -3.63 15.165 -5.5 15.25 C-10.75862541 15.70943126 -16.01333876 16.25349907 -20 20 C-23.00934994 25.71111698 -23.46542937 30.47765189 -23.51171875 36.87109375 C-23.52966995 37.793423 -23.54762115 38.71575226 -23.56611633 39.66603088 C-23.61996736 42.58980848 -23.65403385 45.5134252 -23.6875 48.4375 C-23.72069534 50.42905872 -23.75518704 52.42059629 -23.79101562 54.41210938 C-23.87567926 59.27462303 -23.94261026 64.13709107 -24 69 C-28.62 69 -33.24 69 -38 69 C-38 46.56 -38 24.12 -38 1 C-33.71 1 -29.42 1 -25 1 C-24.67 5.95 -24.34 10.9 -24 16 C-23.278125 14.4325 -22.55625 12.865 -21.8125 11.25 C-19.13153771 5.9181986 -16.69421914 3.19743073 -11.1875 0.75 C-7.30713147 -0.16302789 -3.97934752 -0.13721888 0 0 Z " fill="#000000" transform="translate(403,24)"/>
<path d="M0 0 C4.29 0 8.58 0 13 0 C13 30.69 13 61.38 13 93 C8.71 93 4.42 93 0 93 C0 62.31 0 31.62 0 0 Z " fill="#000000" transform="translate(200,0)"/>
<path d="M0 0 C5.99376853 3.46553283 10.64139845 8.90690783 12.75 15.5 C13.86235854 23.77828936 12.74863865 30.71440841 7.75 37.5 C3.44302879 41.84301281 -1.15171959 44.55371511 -7.25 45.5 C-13.24800898 45.48086759 -18.03912284 44.65395196 -23.25 41.5 C-22.34232898 40.05680308 -21.42343894 38.62065894 -20.5 37.1875 C-19.98953125 36.38699219 -19.4790625 35.58648437 -18.953125 34.76171875 C-17.23022121 32.47373412 -15.66798484 31.01861243 -13.25 29.5 C-12.59 29.5 -11.93 29.5 -11.25 29.5 C-10.02862065 25.16607328 -9.75522282 20.97773344 -10.25 16.5 C-11.60885116 14.09916562 -11.60885116 14.09916562 -13.25 12.5 C-13.25 11.84 -13.25 11.18 -13.25 10.5 C-15.725 9.51 -15.725 9.51 -18.25 8.5 C-18.25 7.84 -18.25 7.18 -18.25 6.5 C-19.57 5.84 -20.89 5.18 -22.25 4.5 C-22.25 3.51 -22.25 2.52 -22.25 1.5 C-15.2271949 -2.24549605 -7.47840845 -3.26726583 0 0 Z " fill="#097378" transform="translate(164.25,24.5)"/>
<path d="M0 0 C4.82547676 1.42840033 8.92227913 3.43897471 13.25 5.9375 C13.87390625 6.28490234 14.4978125 6.63230469 15.140625 6.99023438 C18.25726883 8.7735726 19.9749732 9.9624598 22 13 C21.32904297 13.63615234 21.32904297 13.63615234 20.64453125 14.28515625 C13.01051484 21.69129157 9.18238596 27.23003512 7.5625 37.875 C7 40 7 40 4 42 C1.52031143 47.37265857 1.39373623 53.17684832 1 59 C-1.08182246 55.8772663 -1.25407348 55.17155089 -1.1875 51.625 C-1.17589844 50.82835937 -1.16429687 50.03171875 -1.15234375 49.2109375 C-1 47 -1 47 -0.25 44.25 C0.27620129 41.76662538 0.27620129 41.76662538 -1.875 39.3125 C-2.57625 38.549375 -3.2775 37.78625 -4 37 C-4.33 36.34 -4.66 35.68 -5 35 C-6.32 35.99 -7.64 36.98 -9 38 C-9.66 37.67 -10.32 37.34 -11 37 C-9 33 -9 33 -7 29 C-7.66 28.01 -8.32 27.02 -9 26 C-9 22 -9 22 -7 19 C-6.71657752 17.01604265 -6.43446777 15.03038313 -6.24609375 13.03515625 C-5.76529283 9.05900897 -4.85415818 6.47221091 -2.4375 3.25 C-1.98246094 2.63640625 -1.52742188 2.0228125 -1.05859375 1.390625 C-0.70925781 0.93171875 -0.35992187 0.4728125 0 0 Z M-1 9 C-1.99 10.485 -1.99 10.485 -3 12 C-2.01 11.67 -1.02 11.34 0 11 C-0.33 10.34 -0.66 9.68 -1 9 Z " fill="#BDBA83" transform="translate(60,3)"/>
<path d="M0 0 C4.8274799 1.41292095 8.7162359 3.42974154 13 6 C12.13375 7.2375 12.13375 7.2375 11.25 8.5 C9.18586751 11.5852581 7.55483236 14.7967294 5.9296875 18.12890625 C4.74738964 20.50840488 3.40811663 22.74701339 2 25 C1.64164063 25.6290625 1.28328125 26.258125 0.9140625 26.90625 C-1.85107632 31.62635957 -4.60809381 34.73160469 -9 38 C-9.66 37.67 -10.32 37.34 -11 37 C-9 33 -9 33 -7 29 C-7.66 28.01 -8.32 27.02 -9 26 C-9 22 -9 22 -7 19 C-6.71657752 17.01604265 -6.43446777 15.03038313 -6.24609375 13.03515625 C-5.76529283 9.05900897 -4.85415818 6.47221091 -2.4375 3.25 C-1.98246094 2.63640625 -1.52742188 2.0228125 -1.05859375 1.390625 C-0.70925781 0.93171875 -0.35992187 0.4728125 0 0 Z M-1 9 C-1.99 10.485 -1.99 10.485 -3 12 C-2.01 11.67 -1.02 11.34 0 11 C-0.33 10.34 -0.66 9.68 -1 9 Z " fill="#85A780" transform="translate(60,3)"/>
<path d="M0 0 C1.24671356 1.50917957 2.49070893 3.02090862 3.70703125 4.5546875 C4.96388107 6.14371237 4.96388107 6.14371237 7.0625 7 C10.28368119 8.66254513 11.37564074 10.8092943 13 14 C13.68517787 18.82131258 13.54051557 22.76580739 11 27 C7.57142857 30 7.57142857 30 5 30 C4.731875 30.763125 4.46375 31.52625 4.1875 32.3125 C3.03868178 34.91245703 2.32721056 36.38885423 0 38 C-2.65694438 37.83394098 -3.76383679 37.21086001 -5.75 35.4375 C-6.1625 34.963125 -6.575 34.48875 -7 34 C-3.56482982 29.16531605 -3.56482982 29.16531605 -0.4375 28.25 C0.366875 27.8375 1.17125 27.425 2 27 C3.04417909 23.91234313 3.04417909 23.91234313 3.3125 20.375 C3.45300781 19.18648437 3.59351563 17.99796875 3.73828125 16.7734375 C3.82464844 15.85820313 3.91101563 14.94296875 4 14 C3.01 13.67 2.02 13.34 1 13 C1 11.68 1 10.36 1 9 C-0.1446875 8.566875 -0.1446875 8.566875 -1.3125 8.125 C-4 7 -4 7 -7 5 C-7 4.34 -7 3.68 -7 3 C-2.61538462 0 -2.61538462 0 0 0 Z " fill="#A4B282" transform="translate(142,27)"/>
<path d="M0 0 C2 1 2 1 3.625 2.8125 C5.92394987 4.92995383 7.36098374 5.61231456 10.1875 6.75 C12.29296875 7.71875 12.29296875 7.71875 14 9 C15.03028056 11.83463434 15 13.92711889 15 17 C15.33 17 15.66 17 16 17 C16.16873478 18.43725871 16.33490737 19.87481838 16.5 21.3125 C16.5928125 22.11300781 16.685625 22.91351563 16.78125 23.73828125 C17.25379063 28.62401388 17.25379063 28.62401388 15.3125 31.5 C13.01578147 33.98293895 10.90105508 35.32044179 8 37 C5.63019987 39.95377498 5.63019987 39.95377498 6 44 C2.13304097 43.46292236 0.02939501 42.41445371 -3 40 C-2.09066991 38.72390677 -1.17217147 37.45434447 -0.25 36.1875 C0.26046875 35.47980469 0.7709375 34.77210937 1.296875 34.04296875 C3.04185617 31.94979179 4.7126444 30.47376367 7 29 C7.66 29 8.32 29 9 29 C10.22137935 24.66607328 10.49477718 20.47773344 10 16 C8.64114884 13.59916562 8.64114884 13.59916562 7 12 C7 11.34 7 10.68 7 10 C4.525 9.01 4.525 9.01 2 8 C2 7.34 2 6.68 2 6 C0.68 5.34 -0.64 4.68 -2 4 C-2 3.01 -2 2.02 -2 1 C-1.34 0.67 -0.68 0.34 0 0 Z " fill="#4B927D" transform="translate(144,25)"/>
<path d="M0 0 C0.66 0 1.32 0 2 0 C3.24671356 1.50917957 4.49070893 3.02090862 5.70703125 4.5546875 C6.96388107 6.14371237 6.96388107 6.14371237 9.0625 7 C12.28368119 8.66254513 13.37564074 10.8092943 15 14 C15.68517787 18.82131258 15.54051557 22.76580739 13 27 C9.57142857 30 9.57142857 30 7 30 C6.731875 30.763125 6.46375 31.52625 6.1875 32.3125 C5.04204753 34.90483979 4.23584819 36.30075537 2 38 C1.01 38 0.02 38 -1 38 C0.35236577 35.06120516 1.89942659 32.70767089 4 30.25 C4.515625 29.63640625 5.03125 29.0228125 5.5625 28.390625 C7 27 7 27 9 27 C10.34872232 22.95383304 10.69932539 19.22571089 10 15 C7.62499209 12.12359384 7.62499209 12.12359384 5 10 C5 9.01 5 8.02 5 7 C4.01 6.67 3.02 6.34 2 6 C2 5.34 2 4.68 2 4 C1.01 3.67 0.02 3.34 -1 3 C-0.67 2.01 -0.34 1.02 0 0 Z " fill="#78A27F" transform="translate(140,27)"/>
<path d="M0 0 C1.32 0.33 2.64 0.66 4 1 C-1.60936461 10.58025502 -1.60936461 10.58025502 -4.6875 14.625 C-6.88423296 17.60778437 -8.11718756 20.57388411 -9.30859375 24.06640625 C-10.29846203 26.83468195 -11.63539301 29.40074859 -13 32 C-13.66 32 -14.32 32 -15 32 C-15.75 29.8125 -15.75 29.8125 -16 27 C-14.70513179 25.30327614 -13.36639342 23.6396721 -12 22 C-11.67 20.845 -11.34 19.69 -11 18.5 C-9.92703452 14.74462083 -8.48287403 12.94841291 -6 10 C-5.67 9.175 -5.34 8.35 -5 7.5 C-3.80571253 4.51428133 -2.0821844 2.42921513 0 0 Z " fill="#97AD81" transform="translate(72,10)"/>
<path d="M0 0 C1.98 0.66 3.96 1.32 6 2 C4.09136141 6.77159647 1.96973982 10.77037056 -1 15 C-1.680625 16.03125 -2.36125 17.0625 -3.0625 18.125 C-6.50485437 23.23300971 -6.50485437 23.23300971 -8 25 C-8.66 25 -9.32 25 -10 25 C-9.71125 24.484375 -9.4225 23.96875 -9.125 23.4375 C-7.70885725 20.36919071 -6.8735606 17.2612929 -6 14 C-5.79375 13.2575 -5.5875 12.515 -5.375 11.75 C-4.89523546 9.80938673 -4.89523546 9.80938673 -5 7 C-3.90625 5.17578125 -3.90625 5.17578125 -2.5 3.3125 C-2.0359375 2.68988281 -1.571875 2.06726563 -1.09375 1.42578125 C-0.55234375 0.72001953 -0.55234375 0.72001953 0 0 Z M-1 9 C-1.99 10.485 -1.99 10.485 -3 12 C-2.01 11.67 -1.02 11.34 0 11 C-0.33 10.34 -0.66 9.68 -1 9 Z " fill="#56987E" transform="translate(60,3)"/>
<path d="M0 0 C1.65 0.33 3.3 0.66 5 1 C3.77483948 4.48699532 2.57303252 6.42696748 0 9 C-0.92331784 10.64878186 -1.84549817 12.29822923 -2.7578125 13.953125 C-8.79178082 23.89589041 -8.79178082 23.89589041 -13 26 C-12.32176656 18.81072555 -12.32176656 18.81072555 -9 16 C-7.97388051 14.34928604 -6.97691857 12.68029994 -6 11 C-5.319375 10.01 -4.63875 9.02 -3.9375 8 C-2.23045939 5.35684035 -1.04250732 2.95377073 0 0 Z " fill="#6B9F7F" transform="translate(65,6)"/>
<path d="M0 0 C0.66 0.33 1.32 0.66 2 1 C0.50078242 4.1137596 -1.22279414 7.03799023 -3 10 C-3.27714844 10.58136719 -3.55429688 11.16273437 -3.83984375 11.76171875 C-5.98214115 15.89483797 -8.67517522 19.72065653 -11.22265625 23.61328125 C-13.0991386 27.18890806 -13.6705963 30.00154585 -14 34 C-14.66 34 -15.32 34 -16 34 C-16.75 31.375 -16.75 31.375 -17 28 C-15.73779907 25.95436401 -14.39712274 23.95597184 -13 22 C-12.5978125 20.3603125 -12.5978125 20.3603125 -12.1875 18.6875 C-10.77538566 14.30251337 -8.57713743 11.61112793 -5.68359375 8.0859375 C-3.8743839 5.84436428 -2.41111252 3.50864448 -1 1 C-0.67 0.67 -0.34 0.34 0 0 Z " fill="#ABB482" transform="translate(76,11)"/>
<path d="M0 0 C0.33 0 0.66 0 1 0 C1.16873478 1.43725871 1.33490737 2.87481838 1.5 4.3125 C1.5928125 5.11300781 1.685625 5.91351563 1.78125 6.73828125 C2.25379063 11.62401388 2.25379063 11.62401388 0.3125 14.5 C-1.98421853 16.98293895 -4.09894492 18.32044179 -7 20 C-9.36980013 22.95377498 -9.36980013 22.95377498 -9 27 C-10.65 26.67 -12.3 26.34 -14 26 C-13.50346667 21.72388459 -12.35082637 19.93238236 -9.1875 17.0625 C-3.67118883 11.78344952 -0.62555744 7.81946806 0 0 Z " fill="#1F807A" transform="translate(159,42)"/>
<path d="M0 0 C2 1 2 1 3.625 2.8125 C6.73938008 5.68100796 10.17365407 7.25399749 14 9 C14 10.98 14 12.96 14 15 C12.0625 14.1875 12.0625 14.1875 10 13 C9.67 12.01 9.34 11.02 9 10 C6.03 9.505 6.03 9.505 3 9 C2.67 8.01 2.34 7.02 2 6 C-0.00016466 4.79117904 -0.00016466 4.79117904 -2 4 C-2 3.01 -2 2.02 -2 1 C-1.34 0.67 -0.68 0.34 0 0 Z " fill="#2F897C" transform="translate(144,25)"/>
<path d="M0 0 C2.46800047 1.15173355 4.04783565 2.04783565 6 4 C6.4678919 8.67891899 6.52532889 11.0077121 4.3125 15.1875 C-2.12128713 23.01237624 -2.12128713 23.01237624 -7 25 C-7.33 24.34 -7.66 23.68 -8 23 C-4.56482982 18.16531605 -4.56482982 18.16531605 -1.4375 17.25 C-0.633125 16.8375 0.17125 16.425 1 16 C2.04417909 12.91234313 2.04417909 12.91234313 2.3125 9.375 C2.45300781 8.18648437 2.59351563 6.99796875 2.73828125 5.7734375 C2.82464844 4.85820313 2.91101563 3.94296875 3 3 C2.01 2.67 1.02 2.34 0 2 C0 1.34 0 0.68 0 0 Z " fill="#C1BB83" transform="translate(143,38)"/>
<path d="M0 0 C0.99 0.33 1.98 0.66 3 1 C2.63648437 1.46148437 2.27296875 1.92296875 1.8984375 2.3984375 C-0.9580582 6.10455756 -3.56763663 9.83792816 -5.9375 13.875 C-14.35258456 28.16518296 -14.35258456 28.16518296 -20 32 C-16.92625945 25.65512272 -12.93195006 19.83835009 -9 14 C-4.34526642 7.09850304 -4.34526642 7.09850304 0 0 Z " fill="#79A37F" transform="translate(69,8)"/>
<path d="M0 0 C2.475 0.99 2.475 0.99 5 2 C1.72469104 6.63720719 -1.30435607 10.68542782 -6 14 C-5.835 13.401875 -5.67 12.80375 -5.5 12.1875 C-4.8885876 9.88655664 -4.8885876 9.88655664 -5 7 C-3.90625 5.17578125 -3.90625 5.17578125 -2.5 3.3125 C-2.0359375 2.68988281 -1.571875 2.06726563 -1.09375 1.42578125 C-0.7328125 0.95527344 -0.371875 0.48476563 0 0 Z " fill="#44927D" transform="translate(60,3)"/>
<path d="M0 0 C0.33 0 0.66 0 1 0 C1.80729745 3.01391047 2.29149793 4.94968241 2 8 C0.10227681 11.11272889 -2.36301593 13.50289524 -5 16 C-9.71539805 20.25711843 -9.71539805 20.25711843 -12 26 C-12.66 26 -13.32 26 -14 26 C-13.50346667 21.72388459 -12.35082637 19.93238236 -9.1875 17.0625 C-3.67118883 11.78344952 -0.62555744 7.81946806 0 0 Z " fill="#33897C" transform="translate(159,42)"/>
<path d="M0 0 C2.1640625 0.99609375 2.1640625 0.99609375 4.625 2.4375 C5.44226563 2.91058594 6.25953125 3.38367187 7.1015625 3.87109375 C7.72804687 4.24363281 8.35453125 4.61617187 9 5 C9 5.66 9 6.32 9 7 C7.56163249 6.88541307 6.12429034 6.75790884 4.6875 6.625 C3.88699219 6.55539063 3.08648437 6.48578125 2.26171875 6.4140625 C0 6 0 6 -3 4 C-2.67 3.01 -2.34 2.02 -2 1 C-1.34 0.67 -0.68 0.34 0 0 Z " fill="#D4C384" transform="translate(134,31)"/>
<path d="M0 0 C0.66 0.33 1.32 0.66 2 1 C1.0980639 2.48819457 0.17785871 3.96532813 -0.75 5.4375 C-1.26046875 6.26121094 -1.7709375 7.08492187 -2.296875 7.93359375 C-4.1792182 10.21744593 -5.1157546 10.65514457 -8 11 C-6.63629701 8.00779732 -5.05091917 5.70973471 -2.875 3.25 C-2.33617187 2.63640625 -1.79734375 2.0228125 -1.2421875 1.390625 C-0.62730469 0.70226563 -0.62730469 0.70226563 0 0 Z " fill="#84A880" transform="translate(147,54)"/>
<path d="M0 0 C1 3 1 3 0 6 C-0.22179785 7.89212737 -0.40614015 9.78884472 -0.5625 11.6875 C-0.68818359 13.17830078 -0.68818359 13.17830078 -0.81640625 14.69921875 C-0.87699219 15.45847656 -0.93757813 16.21773437 -1 17 C-3.08962236 13.86556646 -3.25367554 13.12996308 -3.1875 9.5625 C-3.18105469 8.80066406 -3.17460938 8.03882813 -3.16796875 7.25390625 C-3.00217704 5.02921287 -2.72795852 3.1096887 -2 1 C-1.34 0.67 -0.68 0.34 0 0 Z " fill="#A2B081" transform="translate(62,45)"/>
<path d="M0 0 C0.66 0.33 1.32 0.66 2 1 C0.576875 2.299375 0.576875 2.299375 -0.875 3.625 C-3.77204593 6.49471531 -5.04314133 8.98119358 -6 13 C-7.32 12.34 -8.64 11.68 -10 11 C-9.09066991 9.72390677 -8.17217147 8.45434447 -7.25 7.1875 C-6.73953125 6.47980469 -6.2290625 5.77210937 -5.703125 5.04296875 C-3.97517642 2.97022309 -2.21473524 1.52624146 0 0 Z " fill="#59987E" transform="translate(151,54)"/>
<path d="M0 0 C0.66 0 1.32 0 2 0 C3.7143618 1.95927063 5.38405168 3.95880212 7 6 C5.68 6.33 4.36 6.66 3 7 C2.67 6.01 2.34 5.02 2 4 C1.01 3.67 0.02 3.34 -1 3 C-0.67 2.01 -0.34 1.02 0 0 Z " fill="#68A07F" transform="translate(140,27)"/>
<path d="M0 0 C0.66 0 1.32 0 2 0 C0.52307692 6.52307692 0.52307692 6.52307692 -2.125 8.9375 C-2.74375 9.288125 -3.3625 9.63875 -4 10 C-2.66666667 6.66666667 -1.33333333 3.33333333 0 0 Z " fill="#639D7F" transform="translate(65,6)"/>
<path d="M0 0 C1.98 0.99 1.98 0.99 4 2 C4 4.97 4 7.94 4 11 C3.01 11.495 3.01 11.495 2 12 C2.33 9.03 2.66 6.06 3 3 C2.01 2.67 1.02 2.34 0 2 C0 1.34 0 0.68 0 0 Z " fill="#D3C084" transform="translate(143,38)"/>
</svg>
