<?xml version="1.0" encoding="UTF-8"?>
<svg version="1.1" xmlns="http://www.w3.org/2000/svg" width="850" height="190">
<path d="M0 0 C19.40351009 14.94290223 19.40351009 14.94290223 27.3046875 23.20703125 C31.29334081 21.51014696 34.41737423 18.79623948 37.7421875 16.08203125 C59.92747428 -1.65684962 59.92747428 -1.65684962 72.9453125 -1.140625 C80.46488074 -0.03260915 87.35319791 3.41353709 92.3046875 9.20703125 C97.95999987 16.8574919 98.52237972 24.94458548 97.3046875 34.20703125 C94.72385412 43.10972253 88.82104927 48.51458481 81.0546875 53.14453125 C73.44653193 55.30017533 65.87367994 55.32184504 58.765625 51.65234375 C57.95351562 51.17539063 57.14140625 50.6984375 56.3046875 50.20703125 C55.24507812 49.58570312 54.18546875 48.964375 53.09375 48.32421875 C44.46399675 43.08024397 36.84105871 36.9046369 29.3046875 30.20703125 C24.92103507 33.32946525 20.81031848 36.60370451 16.8671875 40.26953125 C0.12103808 55.50724889 -19.03922723 68.89428772 -39.6953125 78.20703125 C-40.47519531 78.58730469 -41.25507812 78.96757812 -42.05859375 79.359375 C-52.37036127 83.70433335 -66.52747774 82.20637934 -76.7421875 78.5234375 C-91.01259018 72.16216011 -101.56397785 61.62425085 -107.9453125 47.42578125 C-112.48789495 35.18604519 -112.98366454 19.09662261 -108.015625 6.90234375 C-100.26285547 -8.92431594 -90.27998414 -19.58958553 -73.65625 -25.95703125 C-45.39723224 -34.10720618 -21.35393919 -16.22599431 0 0 Z " fill="#6C9C7E" transform="translate(139.6953125,57.79296875)"/>
<path d="M0 0 C1.11643387 0.00565979 2.23286774 0.01131958 3.38313293 0.01715088 C6.90822366 0.03933302 10.43225382 0.08949583 13.95703125 0.140625 C16.36391749 0.16071344 18.77081985 0.17896007 21.17773438 0.1953125 C27.04206804 0.23913833 32.90562057 0.30803918 38.76953125 0.390625 C38.76953125 4.350625 38.76953125 8.310625 38.76953125 12.390625 C28.86953125 12.885625 28.86953125 12.885625 18.76953125 13.390625 C20.17203125 14.091875 21.57453125 14.793125 23.01953125 15.515625 C27.244454 17.88051887 29.6269772 19.92697073 31.76953125 24.390625 C33.60807108 31.35081151 32.36090028 37.48226091 28.95703125 43.703125 C23.13195384 50.85964867 15.89401378 53.72709639 6.84765625 54.8984375 C-0.56223421 55.52215086 -7.86535777 55.54142359 -15.23046875 54.390625 C-17.63860952 57.90249696 -18.59676283 60.11719408 -18.23046875 64.390625 C-14.31184779 65.69683199 -10.55507243 65.56580431 -6.46875 65.6015625 C-4.69204829 65.62964471 -2.91535571 65.65830926 -1.13867188 65.6875 C1.65453706 65.72863782 4.44757812 65.76553547 7.2409668 65.79199219 C9.94225074 65.81977874 12.64276685 65.86566165 15.34375 65.9140625 C16.16799973 65.91731537 16.99224945 65.92056824 17.84147644 65.92391968 C24.43308326 66.06205217 31.33142449 67.1884111 36.14453125 72.140625 C39.83485387 76.20198549 40.59372928 80.45680336 41.08203125 85.828125 C40.52091971 92.22479655 38.43632404 97.84996174 33.76953125 102.390625 C23.99308073 108.76753704 13.05727432 108.73820005 1.79614258 108.70629883 C-0.52766181 108.70314577 -2.85018095 108.72663464 -5.17382812 108.75195312 C-17.13501972 108.80279 -29.00046508 108.3713182 -38.04296875 99.640625 C-40.44772772 95.08423959 -40.71112464 91.02485504 -39.29296875 86.203125 C-35.716441 81.32604171 -30.5628696 79.01507284 -25.23046875 76.390625 C-26.19984375 75.71 -27.16921875 75.029375 -28.16796875 74.328125 C-30.81132797 72.1169738 -31.23133095 71.38778481 -32.29296875 67.890625 C-32.22202353 63.91769289 -31.7114175 62.4504618 -29.23046875 59.390625 C-26.79296875 57.265625 -26.79296875 57.265625 -24.23046875 55.390625 C-22.89626736 54.39178345 -21.56278306 53.39198225 -20.23046875 52.390625 C-20.82214844 52.0503125 -21.41382813 51.71 -22.0234375 51.359375 C-28.21979609 47.55867218 -32.53994003 43.58218417 -34.8359375 36.53125 C-36.4337039 27.86218082 -35.94386495 18.97478659 -31.23046875 11.390625 C-23.27119142 1.65221509 -11.94319586 -0.23287837 0 0 Z M-18.16796875 18.015625 C-21.1254625 22.85516022 -21.85529123 27.01658363 -20.8203125 32.60546875 C-19.61343708 36.48625978 -18.48587718 38.17869034 -15.29296875 40.828125 C-8.3849714 44.35261344 -0.33170945 44.34913838 7.22265625 42.9296875 C12.2260697 41.30644268 15.05766393 38.82822607 17.76953125 34.390625 C19.26143498 29.65163667 19.23997265 25.65876149 17.26953125 21.078125 C14.60946562 16.44148282 10.97856075 14.37852871 5.87890625 12.80859375 C-2.97454581 11.05429862 -11.35842732 11.93050287 -18.16796875 18.015625 Z M-26.16796875 82.203125 C-27.65790067 85.2706319 -27.84938959 87.02094488 -27.23046875 90.390625 C-22.87375081 94.88896999 -19.3069589 96.27949536 -13.04296875 96.765625 C-12.26775879 96.83740967 -11.49254883 96.90919434 -10.69384766 96.9831543 C-4.82025623 97.44760245 1.01061216 97.45578364 6.89453125 97.203125 C7.6630542 97.17331543 8.43157715 97.14350586 9.22338867 97.11279297 C14.94989999 96.75476906 20.97282408 95.82845544 25.44189453 91.93286133 C27.33041273 89.73908247 27.63519131 88.27893376 27.76953125 85.390625 C26.59028048 82.04941449 25.83471447 79.97854758 22.67333984 78.23364258 C18.91337192 77.14206958 15.3147496 77.08519895 11.43359375 77.08984375 C10.23722794 77.08341606 10.23722794 77.08341606 9.01669312 77.07685852 C7.33405504 77.07113162 5.65139221 77.07060284 3.96875 77.07495117 C1.40972101 77.07810627 -1.14814539 77.05464944 -3.70703125 77.02929688 C-5.3476548 77.02702304 -6.98828144 77.02632077 -8.62890625 77.02734375 C-9.38642181 77.018134 -10.14393738 77.00892426 -10.92440796 76.99943542 C-16.76878743 77.04970939 -21.7482419 78.06854182 -26.16796875 82.203125 Z " fill="#FFFFFF" transform="translate(408.23046875,59.609375)"/>
<path d="M0 0 C1.00073547 0.00007553 2.00147095 0.00015106 3.03253174 0.00022888 C4.64209747 0.00797081 4.64209747 0.00797081 6.28417969 0.01586914 C7.38832214 0.01728409 8.4924646 0.01869904 9.63006592 0.02015686 C13.15542311 0.02575281 16.68071671 0.0383046 20.20605469 0.05102539 C22.59667877 0.05604091 24.98730385 0.06060373 27.37792969 0.06469727 C33.23732918 0.07572093 39.09668115 0.09298282 44.95605469 0.11352539 C44.95605469 4.07352539 44.95605469 8.03352539 44.95605469 12.11352539 C37.36605469 12.11352539 29.77605469 12.11352539 21.95605469 12.11352539 C25.25605469 13.43352539 28.55605469 14.75352539 31.95605469 16.11352539 C36.64692393 20.80439463 39.04972174 23.93485527 39.33105469 30.67602539 C39.24425371 37.27289951 36.99268101 42.96387328 32.38183594 47.74633789 C22.85488549 55.16359069 9.26228943 56.09072948 -2.36425781 54.72290039 C-4.62821638 54.27139868 -6.83201817 53.77112535 -9.04394531 53.11352539 C-10.88710545 57.50834671 -10.88710545 57.50834671 -12.04394531 62.11352539 C-11.71394531 62.77352539 -11.38394531 63.43352539 -11.04394531 64.11352539 C-7.13915728 65.4151214 -3.42202412 65.24910235 0.64746094 65.25415039 C2.41505181 65.27249217 4.18263026 65.29206373 5.95019531 65.31274414 C8.72587861 65.34158368 11.500769 65.36352224 14.27661133 65.36401367 C34.521629 65.38937656 34.521629 65.38937656 41.95605469 71.11352539 C46.37521432 75.64046941 47.12020848 79.22363696 47.20605469 85.42602539 C47.13309721 91.40853887 46.67873234 95.20357361 42.47949219 99.69165039 C34.7099786 106.99995998 25.50257145 108.2534371 15.13574219 108.31665039 C14.39583038 108.32235046 13.65591858 108.32805054 12.89358521 108.33392334 C11.33206593 108.34332946 9.77052719 108.34988977 8.20898438 108.35375977 C5.85868197 108.36341193 3.50927546 108.39445399 1.15917969 108.42602539 C-10.47200323 108.50844237 -21.94105662 108.22696966 -31.04394531 100.11352539 C-33.59995431 95.90567385 -33.94415941 91.91466727 -33.04394531 87.11352539 C-29.8574811 80.91021864 -24.36348271 78.37451544 -18.04394531 76.11352539 C-19.01332031 75.49477539 -19.98269531 74.87602539 -20.98144531 74.23852539 C-24.04394531 72.11352539 -24.04394531 72.11352539 -25.04394531 70.11352539 C-25.74197782 63.01686158 -25.74197782 63.01686158 -22.91894531 59.36352539 C-20.04993956 57.11821654 -17.08442296 55.11747657 -14.04394531 53.11352539 C-13.71394531 52.45352539 -13.38394531 51.79352539 -13.04394531 51.11352539 C-13.88957031 50.94852539 -14.73519531 50.78352539 -15.60644531 50.61352539 C-21.14478027 48.19679741 -24.53347393 44.18602007 -27.18847656 38.78540039 C-29.96923397 30.91293649 -29.81359872 22.30433542 -26.29394531 14.67602539 C-21.99719017 7.30145273 -15.31579698 3.01528609 -7.20904541 0.55714417 C-4.75191779 0.05369033 -2.50853276 -0.00633468 0 0 Z M-13.04394531 20.11352539 C-14.92059522 25.74347512 -14.98143682 31.20382047 -12.35644531 36.55102539 C-8.19567386 41.16160998 -4.18663793 42.89736135 1.90917969 43.31665039 C8.66039058 43.41263917 13.93086234 43.29044499 19.95605469 40.11352539 C24.5527301 35.28112304 25.25482157 32.06691239 25.17089844 25.58618164 C24.78113119 21.10031496 22.83676522 18.96977174 19.70605469 15.92602539 C9.28344548 9.05657842 -5.06156424 10.43791196 -13.04394531 20.11352539 Z M-18.91894531 81.30102539 C-20.48719419 83.82764858 -20.63461726 86.24441802 -20.53222656 89.17602539 C-20.14348458 91.48652678 -20.14348458 91.48652678 -17.29394531 93.55102539 C-5.053887 99.43566881 13.01243211 98.04302888 25.95605469 95.11352539 C29.89958961 93.46188018 31.5642797 92.70118787 33.95605469 89.11352539 C34.45931548 85.25519263 34.27274794 83.60494596 32.14355469 80.30102539 C28.2010667 76.3585374 23.80859391 76.93838318 18.56152344 76.91040039 C17.73654861 76.90470032 16.91157379 76.89900024 16.06159973 76.89312744 C14.31573771 76.88368416 12.56985791 76.87714613 10.82397461 76.87329102 C8.16390551 76.86359954 5.50461391 76.83257627 2.84472656 76.80102539 C1.14616343 76.7944935 -0.55240522 76.78924376 -2.25097656 76.78540039 C-3.0418013 76.77305359 -3.83262604 76.76070679 -4.64741516 76.74798584 C-10.36874424 76.77085964 -14.05356904 78.21962042 -18.91894531 81.30102539 Z " fill="#FFFFFF" transform="translate(696.0439453125,59.886474609375)"/>
<path d="M0 0 C7.34294428 5.6015827 10.79310329 12.17241318 13 21 C13 27.6 13 34.2 13 41 C-6.8 41 -26.6 41 -47 41 C-44.13986431 52.52173673 -44.13986431 52.52173673 -37 61 C-29.19786751 65.01524379 -19.82348498 65.78322691 -11.359375 63.19140625 C-5.8903592 60.17509792 -3.62936537 55.50523375 -1 50 C3.62 50 8.24 50 13 50 C12.51024489 58.97884374 9.26042903 65.16049957 2.75 71.375 C-6.6727118 79.24812962 -18.190723 79.48642856 -29.9921875 78.48828125 C-40.49471423 77.35293981 -48.12540282 73.04243593 -55 65 C-62.97151021 53.18302006 -64.16100179 39.83356623 -62 26 C-59.3540084 14.52489654 -53.71496719 5.75600711 -44 -1 C-31.89974032 -8.22180992 -11.67974001 -7.67472549 0 0 Z M-40.9375 13.8125 C-44.43534165 19.21825528 -45.93608347 23.61650084 -47 30 C-31.82 30 -16.64 30 -1 30 C-2.80750747 18.68581528 -2.80750747 18.68581528 -9.375 10.75 C-18.71743128 4.52171248 -33.13387004 5.09766774 -40.9375 13.8125 Z " fill="#FFFFFF" transform="translate(807,63)"/>
<path d="M0 0 C5.78831681 6.29905065 8.25596981 12.92311077 8.23852539 21.36621094 C8.23841209 23.19765656 8.23841209 23.19765656 8.23829651 25.06610107 C8.23313522 26.37975647 8.22797394 27.69341187 8.22265625 29.046875 C8.22079021 30.4087926 8.21936718 31.77071088 8.21836853 33.13262939 C8.21455803 36.70991889 8.20474032 40.28716752 8.19366455 43.86444092 C8.18341884 47.51769457 8.17886415 51.17095486 8.17382812 54.82421875 C8.16311669 61.98699992 8.14553182 69.14973902 8.125 76.3125 C3.175 76.3125 -1.775 76.3125 -6.875 76.3125 C-7.205 71.0325 -7.535 65.7525 -7.875 60.3125 C-8.555625 61.50875 -9.23625 62.705 -9.9375 63.9375 C-13.65002552 69.82956999 -18.46899362 74.62501846 -25.24609375 76.83984375 C-33.86507732 78.38946784 -44.27109645 78.90318396 -52.14453125 74.578125 C-56.83579077 71.14704581 -59.70318776 67.06503281 -60.875 61.3125 C-61.42113167 54.40783528 -61.74995846 47.32581346 -57.875 41.3125 C-53.04141795 35.8011053 -47.20749566 31.98965044 -39.81074524 31.05036926 C-37.67989197 30.96910101 -35.56936182 30.97395648 -33.4375 31.01953125 C-32.67195801 31.02377609 -31.90641602 31.02802094 -31.11767578 31.03239441 C-28.70307313 31.04901672 -26.28934489 31.08663494 -23.875 31.125 C-22.22527258 31.14006822 -20.57553191 31.15375286 -18.92578125 31.16601562 C-14.9085238 31.19886583 -10.89190948 31.25053027 -6.875 31.3125 C-7.13232276 29.10255163 -7.40647686 26.89455976 -7.6875 24.6875 C-7.83832031 23.45773438 -7.98914063 22.22796875 -8.14453125 20.9609375 C-9.11230492 16.12724439 -10.34696532 12.48791129 -14.3125 9.4375 C-20.85389975 7.37179482 -27.962815 7.11073666 -34.375 9.8125 C-39.54727637 12.81263536 -41.07229102 17.90437305 -42.875 23.3125 C-47.825 23.3125 -52.775 23.3125 -57.875 23.3125 C-57.875 14.71531688 -55.72598704 8.48623643 -49.82421875 2.08984375 C-36.19496671 -9.31224809 -14.81707866 -8.69698095 0 0 Z M-44.75 47 C-46.4276041 50.44840843 -46.62208555 53.61264774 -45.875 57.3125 C-43.57000573 61.08430881 -41.81209544 62.87263888 -37.8125 64.75 C-29.41975605 65.94896342 -20.90253583 65.43232889 -13.875 60.3125 C-9.75109968 56.66321737 -7.95035005 52.68925024 -6.875 47.3125 C-6.84862441 45.64604205 -6.84366651 43.9788721 -6.875 42.3125 C-11.0375612 42.23796378 -15.1997618 42.18371746 -19.36279297 42.14770508 C-20.77692437 42.13268175 -22.19100968 42.11225695 -23.60498047 42.08618164 C-25.64562397 42.04951046 -27.68564792 42.03270964 -29.7265625 42.01953125 C-30.95197754 42.0038208 -32.17739258 41.98811035 -33.43994141 41.97192383 C-38.01787362 42.42581263 -41.33327447 43.92494702 -44.75 47 Z " fill="#FFFFFF" transform="translate(353.875,63.6875)"/>
<path d="M0 0 C0.87406494 0.00684814 1.74812988 0.01369629 2.64868164 0.02075195 C10.8474575 0.22406515 17.5723125 1.56511436 24.0625 6.8125 C31.83056016 16.69912202 32.41968816 23.95914187 32.3203125 36.24609375 C32.31657667 37.58130175 32.31373239 38.91651251 32.31173706 40.25172424 C32.30414541 43.74518566 32.28453606 47.23847755 32.2623291 50.73187256 C32.24177371 54.30494901 32.23271473 57.87805318 32.22265625 61.45117188 C32.20128532 68.44669073 32.16614028 75.44206974 32.125 82.4375 C27.175 82.4375 22.225 82.4375 17.125 82.4375 C16.795 77.1575 16.465 71.8775 16.125 66.4375 C15.25875 67.819375 14.3925 69.20125 13.5 70.625 C9.63951467 76.37062886 5.5817033 80.64798962 -1.2109375 82.9296875 C-9.80455733 84.56776753 -20.28325909 85.01020344 -28.14453125 80.70703125 C-32.53681094 77.48470416 -35.1680613 73.61820868 -36.875 68.4375 C-37.57153541 61.37264083 -37.90857503 53.57554896 -33.875 47.4375 C-29.03433761 41.92916003 -23.21188854 38.11520827 -15.81074524 37.17536926 C-13.67989197 37.09410101 -11.56936182 37.09895648 -9.4375 37.14453125 C-8.67195801 37.14877609 -7.90641602 37.15302094 -7.11767578 37.15739441 C-4.70307313 37.17401672 -2.28934489 37.21163494 0.125 37.25 C1.77472742 37.26506822 3.42446809 37.27875286 5.07421875 37.29101562 C9.0914762 37.32386583 13.10809052 37.37553027 17.125 37.4375 C16.75414354 34.70281046 16.35457205 31.97769583 15.9375 29.25 C15.83630859 28.48107422 15.73511719 27.71214844 15.63085938 26.91992188 C14.79050379 21.62795293 13.51126596 18.86531027 9.125 15.4375 C2.99441731 13.39397244 -4.3848294 13.37673027 -10.375 15.9375 C-15.54727637 18.93763536 -17.07229102 24.02937305 -18.875 29.4375 C-23.825 29.4375 -28.775 29.4375 -33.875 29.4375 C-33.875 20.85564557 -31.74423037 14.56033162 -25.7890625 8.21484375 C-18.05711679 1.82581493 -9.88059073 -0.11920412 0 0 Z M-20.75 53.125 C-22.4276041 56.57340843 -22.62208555 59.73764774 -21.875 63.4375 C-19.57000573 67.20930881 -17.81209544 68.99763888 -13.8125 70.875 C-5.41975605 72.07396342 3.09746417 71.55732889 10.125 66.4375 C14.24890032 62.78821737 16.04964995 58.81425024 17.125 53.4375 C17.15137559 51.77104205 17.15633349 50.1038721 17.125 48.4375 C12.9624388 48.36296378 8.8002382 48.30871746 4.63720703 48.27270508 C3.22307563 48.25768175 1.80899032 48.23725695 0.39501953 48.21118164 C-1.64562397 48.17451046 -3.68564792 48.15770964 -5.7265625 48.14453125 C-6.95197754 48.1288208 -8.17739258 48.11311035 -9.43994141 48.09692383 C-14.01787362 48.55081263 -17.33327447 50.04994702 -20.75 53.125 Z " fill="#FFFFFF" transform="translate(540.875,57.5625)"/>
<path d="M0 0 C1.12595581 0.01244751 1.12595581 0.01244751 2.2746582 0.02514648 C9.91594885 0.25907204 14.5876923 2.10645298 19.875 7.6875 C27.11309457 16.89246809 26.71473506 27.95057101 26.6953125 39.1171875 C26.69626923 40.32569366 26.69722595 41.53419983 26.69821167 42.77932739 C26.69889009 45.32261202 26.69705942 47.86589841 26.69287109 50.40917969 C26.68749009 54.3197004 26.69284184 58.23010771 26.69921875 62.140625 C26.69855846 64.61197942 26.69727831 67.08333377 26.6953125 69.5546875 C26.69733673 70.73062469 26.69936096 71.90656189 26.70144653 73.11813354 C26.69671829 74.73584152 26.69671829 74.73584152 26.69189453 76.38623047 C26.69109894 77.33996552 26.69030334 78.29370056 26.68948364 79.27633667 C26.5625 81.4375 26.5625 81.4375 25.5625 82.4375 C23.03200598 82.51063567 20.52945163 82.52997527 18 82.5 C16.93362305 82.49323242 16.93362305 82.49323242 15.84570312 82.48632812 C14.08459987 82.47450864 12.32353964 82.45657263 10.5625 82.4375 C10.55663376 81.77874878 10.55076752 81.11999756 10.54472351 80.44128418 C10.48060961 73.56246612 10.39614345 66.68410812 10.30004883 59.80566406 C10.26686906 57.24127278 10.23881568 54.67680969 10.21606445 52.11230469 C10.1823915 48.41830958 10.13006693 44.7249684 10.07421875 41.03125 C10.06782883 39.8913562 10.0614389 38.7514624 10.05485535 37.57702637 C9.91956353 30.19176605 9.41912279 23.91900902 4.5625 18 C-0.28279443 14.21461373 -6.60143141 14.922766 -12.4375 15.4375 C-18.82215377 17.10762617 -22.82547413 19.96473352 -26.4375 25.4375 C-29.01513695 31.1895442 -28.78566717 36.9924778 -28.8515625 43.1796875 C-28.87092865 44.30319611 -28.8902948 45.42670471 -28.9102478 46.58425903 C-28.96985875 50.16026298 -29.01635548 53.73629943 -29.0625 57.3125 C-29.10069674 59.74220126 -29.13974946 62.17188923 -29.1796875 64.6015625 C-29.27554531 70.54676657 -29.35964497 76.49203402 -29.4375 82.4375 C-34.7175 82.4375 -39.9975 82.4375 -45.4375 82.4375 C-45.4375 56.0375 -45.4375 29.6375 -45.4375 2.4375 C-40.1575 2.4375 -34.8775 2.4375 -29.4375 2.4375 C-28.9425 10.8525 -28.9425 10.8525 -28.4375 19.4375 C-27.591875 17.91125 -26.74625 16.385 -25.875 14.8125 C-19.7954026 4.72265173 -11.79533663 -0.16754365 0 0 Z " fill="#FFFFFF" transform="translate(630.4375,57.5625)"/>
<path d="M0 0 C5.28 0 10.56 0 16 0 C16 36.3 16 72.6 16 110 C10.72 110 5.44 110 0 110 C0 73.7 0 37.4 0 0 Z " fill="#FFFFFF" transform="translate(264,30)"/>
<path d="M0 0 C0 5.61 0 11.22 0 17 C-7.625 17.8125 -7.625 17.8125 -9.99072266 18.04614258 C-14.52886648 18.57323087 -18.04118455 19.56335204 -22 22 C-25.53096825 26.58071556 -27.10593242 30.08406222 -27.18945312 35.82275391 C-27.20617065 36.80031647 -27.22288818 37.77787903 -27.2401123 38.7850647 C-27.25368774 39.83825897 -27.26726318 40.89145325 -27.28125 41.9765625 C-27.29965942 43.05755219 -27.31806885 44.13854187 -27.33703613 45.25228882 C-27.41584838 49.88618931 -27.48364558 54.5202357 -27.55224609 59.15429688 C-27.60382007 62.53262873 -27.66111615 65.9108295 -27.71875 69.2890625 C-27.73232544 70.34630524 -27.74590088 71.40354797 -27.7598877 72.49282837 C-27.77660522 73.46408661 -27.79332275 74.43534485 -27.81054688 75.43603516 C-27.82933899 76.72485092 -27.82933899 76.72485092 -27.84851074 78.03970337 C-28 80 -28 80 -29 81 C-33.95 81 -38.9 81 -44 81 C-44 54.6 -44 28.2 -44 1 C-39.05 1 -34.1 1 -29 1 C-28.67 6.94 -28.34 12.88 -28 19 C-26.700625 16.1846875 -26.700625 16.1846875 -25.375 13.3125 C-22.34465346 7.25893714 -19.86713731 3.84893434 -13.6796875 0.890625 C-9.14037209 -0.61806875 -4.75356074 -0.11454363 0 0 Z " fill="#FFFFFF" transform="translate(503,59)"/>
<path d="M0 0 C6.13415879 3.81151614 9.93821338 9.08801931 12 16 C13.22141055 25.22512521 12.70218207 33.41086396 7 41 C2.02535074 46.48460285 -3.47764879 50.74970635 -11.10546875 51.171875 C-14.07771111 51.18581283 -17.03096414 51.13163213 -20 51 C-19.25 44.375 -19.25 44.375 -17 41 C-16.195625 40.71125 -15.39125 40.4225 -14.5625 40.125 C-11.26403369 38.67689284 -10.61978337 37.16594022 -9 34 C-8 32.33333333 -7 30.66666667 -6 29 C-6.495 28.505 -6.495 28.505 -7 28 C-7.04092937 25.66702567 -7.04241723 23.33294775 -7 21 C-8.32 21.33 -9.64 21.66 -11 22 C-11.12117187 21.24074219 -11.24234375 20.48148438 -11.3671875 19.69921875 C-11.61855469 18.20841797 -11.61855469 18.20841797 -11.875 16.6875 C-12.03742188 15.70136719 -12.19984375 14.71523437 -12.3671875 13.69921875 C-12.88085454 10.79940173 -12.88085454 10.79940173 -15 8 C-17.07807494 6.88360646 -17.07807494 6.88360646 -19.4375 6 C-22.59326664 4.75225042 -24.83882373 3.66846202 -27 1 C-27 0.34 -27 -0.32 -27 -1 C-17.15693843 -5.29515414 -9.5819132 -5.08492906 0 0 Z " fill="#0A7378" transform="translate(225,61)"/>
<path d="M0 0 C0.99 0.33 1.98 0.66 3 1 C3 1.66 3 2.32 3 3 C3.680625 3.268125 4.36125 3.53625 5.0625 3.8125 C6.031875 4.204375 7.00125 4.59625 8 5 C9.19625 5.391875 10.3925 5.78375 11.625 6.1875 C15 8 15 8 16.9375 11.25 C18.01090875 15.03850145 18.23966825 18.08541861 18 22 C19.32 21.67 20.64 21.34 22 21 C21.96744792 23.01822917 21.93489583 25.03645833 21.90234375 27.0546875 C21.87350758 29.08185404 21.87350758 29.08185404 23 31 C21.6772113 33.00698975 20.34216975 35.00591923 19 37 C18.505 37.78375 18.01 38.5675 17.5 39.375 C17.005 39.91125 16.51 40.4475 16 41 C14.68 41 13.36 41 12 41 C11.01 43.97 10.02 46.94 9 50 C4.6109185 49.48964169 1.66291938 48.47785723 -2 46 C-1.52297442 41.7067698 1.04491821 39.95508179 4 37 C8.48469812 31.6766998 9.53057404 27.43853179 9.2734375 20.515625 C9.02538912 18.23357989 8.72864289 16.17614822 8 14 C6.26857146 12.84077872 6.26857146 12.84077872 4 12 C2 11 0 10 -2 9 C-2 8.34 -2 7.68 -2 7 C-2.66 7 -3.32 7 -4 7 C-4.33 5.68 -4.66 4.36 -5 3 C-2.6875 1.4375 -2.6875 1.4375 0 0 Z " fill="#49927D" transform="translate(196,61)"/>
<path d="M0 0 C0.99 0.33 1.98 0.66 3 1 C3 1.66 3 2.32 3 3 C3.66 3 4.32 3 5 3 C5 3.66 5 4.32 5 5 C5.721875 5.0825 6.44375 5.165 7.1875 5.25 C11.16473649 6.3105964 13.94034821 8.27481252 16.11328125 11.8125 C17.85601462 16.11175413 17.71659491 20.46769029 17 25 C15.38989672 28.35226551 13.34024494 31.12451656 11 34 C10.48050781 34.74378906 9.96101563 35.48757812 9.42578125 36.25390625 C8.95527344 36.83011719 8.48476562 37.40632813 8 38 C7.34 38 6.68 38 6 38 C5.67 38.99 5.34 39.98 5 41 C1.06326356 39.68775452 -1.22719294 38.08089673 -4 35 C-3.113125 34.46375 -2.22625 33.9275 -1.3125 33.375 C4.1695501 29.64254036 6.97599347 26.23626248 8.3125 19.75 C8.6911395 17.45732045 9 15.3220646 9 13 C7.35 12.67 5.7 12.34 4 12 C4 11.34 4 10.68 4 10 C1.03 10 -1.94 10 -5 10 C-5 8.68 -5 7.36 -5 6 C-5.66 5.67 -6.32 5.34 -7 5 C-5.90554162 4.13342884 -4.79902219 3.28207276 -3.6875 2.4375 C-3.07261719 1.96183594 -2.45773438 1.48617187 -1.82421875 0.99609375 C-1.22222656 0.66738281 -0.62023437 0.33867188 0 0 Z " fill="#D7C384" transform="translate(189,65)"/>
<path d="M0 0 C1.71230248 1.61974559 3.37163262 3.2958946 5 5 C7.48171503 7.54375791 9.83436835 9.87673924 12.6875 12 C15.33908702 14.29326445 16.13592319 15.62224519 17 19 C17.52983988 26.55021834 17.52983988 26.55021834 15 30 C13.55787417 31.17992113 12.11303095 32.35697582 10.64453125 33.50390625 C8.7473732 35.22982438 7.40663907 37.08818758 5.9375 39.1875 C3.64734517 42.39613381 1.97492321 44.06472395 -2 45 C-1.52297442 40.7067698 1.04491821 38.95508179 4 36 C8.48469812 30.6766998 9.53057404 26.43853179 9.2734375 19.515625 C9.02538912 17.23357989 8.72864289 15.17614822 8 13 C6.26857146 11.84077872 6.26857146 11.84077872 4 11 C2 10 0 9 -2 8 C-2 7.34 -2 6.68 -2 6 C-2.66 6 -3.32 6 -4 6 C-4.33 4.68 -4.66 3.36 -5 2 C-2 0 -2 0 0 0 Z " fill="#81A680" transform="translate(196,62)"/>
<path d="M0 0 C0.99 0.33 1.98 0.66 3 1 C3 1.66 3 2.32 3 3 C3.66 3 4.32 3 5 3 C5 3.66 5 4.32 5 5 C6.0828125 5.12375 6.0828125 5.12375 7.1875 5.25 C11.16473649 6.3105964 13.94034821 8.27481252 16.11328125 11.8125 C17.85601462 16.11175413 17.71659491 20.46769029 17 25 C15.38989672 28.35226551 13.34024494 31.12451656 11 34 C10.48050781 34.74378906 9.96101562 35.48757812 9.42578125 36.25390625 C8.95527344 36.83011719 8.48476562 37.40632813 8 38 C7.34 38 6.68 38 6 38 C5.67 38.99 5.34 39.98 5 41 C4.01 40.67 3.02 40.34 2 40 C3.56413431 36.16076124 6.09936232 33.90063768 9 31 C9.556875 30.071875 10.11375 29.14375 10.6875 28.1875 C11.120625 27.465625 11.55375 26.74375 12 26 C12.66 26 13.32 26 14 26 C14.10841951 24.08458862 14.18578079 22.16740227 14.25 20.25 C14.31960937 18.64898437 14.31960937 18.64898437 14.390625 17.015625 C13.90046449 13.23158584 12.98541849 12.30872364 10 10 C8.1195645 8.85493034 6.20028285 7.77157673 4.25 6.75 C3.26515625 6.22921875 2.2803125 5.7084375 1.265625 5.171875 C0.51796875 4.78515625 -0.2296875 4.3984375 -1 4 C-0.67 2.68 -0.34 1.36 0 0 Z " fill="#A8B382" transform="translate(189,65)"/>
<path d="M0 0 C0.66 0 1.32 0 2 0 C1.96744792 2.01822917 1.93489583 4.03645833 1.90234375 6.0546875 C1.87350758 8.08185404 1.87350758 8.08185404 3 10 C1.6772113 12.00698975 0.34216975 14.00591923 -1 16 C-1.495 16.78375 -1.99 17.5675 -2.5 18.375 C-3.2425 19.179375 -3.2425 19.179375 -4 20 C-5.32 20 -6.64 20 -8 20 C-8.99 22.97 -9.98 25.94 -11 29 C-12.65 28.67 -14.3 28.34 -16 28 C-15.67654971 24.83128364 -15.3206057 23.33166106 -13.07421875 21.0078125 C-12.28660156 20.38648437 -11.49898437 19.76515625 -10.6875 19.125 C-6.58258457 15.67165845 -4.31382484 12.81275566 -2 8 C-1.5875 7.278125 -1.175 6.55625 -0.75 5.8125 C0.2549012 3.71091284 0.2549012 3.71091284 0 0 Z " fill="#28837B" transform="translate(216,82)"/>
<path d="M0 0 C0.99 0 1.98 0 3 0 C3 0.66 3 1.32 3 2 C4.175625 2.0825 5.35125 2.165 6.5625 2.25 C11.15469785 2.79844431 14.14249265 4.50869317 18 7 C18.10864945 9.06132142 18.18588321 11.12431321 18.25 13.1875 C18.29640625 14.33605469 18.3428125 15.48460938 18.390625 16.66796875 C17.92473219 20.64203438 16.79815953 22.20184047 14 25 C11.75 25.8125 11.75 25.8125 10 26 C10 25.34 10 24.68 10 24 C10.61875 23.505 11.2375 23.01 11.875 22.5 C15.24993182 18.52949198 16 13.16932368 16 8 C14.35 7.67 12.7 7.34 11 7 C11 6.34 11 5.68 11 5 C8.03 5 5.06 5 2 5 C2 3.68 2 2.36 2 1 C1.34 0.67 0.68 0.34 0 0 Z " fill="#E9C885" transform="translate(182,70)"/>
<path d="M0 0 C4.52730879 1.59067606 6.93211161 2.97663253 9.1875 7.25 C10.38460836 11.30175137 10.57492717 15.04524763 9.375 19.125 C7.7594964 21.32795946 5.80057142 22.81740817 3.6640625 24.49609375 C0.61591678 27.25087333 -1.65367964 30.64692515 -4 34 C-4.33 33.34 -4.66 32.68 -5 32 C-4.45730469 31.34773438 -3.91460937 30.69546875 -3.35546875 30.0234375 C3.35095302 22.1459156 3.35095302 22.1459156 6.4375 12.5 C5.91696192 8.33569539 4.54317299 6.29116504 2 3 C1.34 2.01 0.68 1.02 0 0 Z " fill="#649B7E" transform="translate(203,71)"/>
<path d="M0 0 C0.99 0.33 1.98 0.66 3 1 C3 1.66 3 2.32 3 3 C3.680625 3.268125 4.36125 3.53625 5.0625 3.8125 C6.031875 4.204375 7.00125 4.59625 8 5 C9.19625 5.391875 10.3925 5.78375 11.625 6.1875 C14.96277039 7.98000632 15.53415102 8.306063 17 11.5 C18 15 18 15 17 18 C16.29875 17.2575 15.5975 16.515 14.875 15.75 C12.11745909 12.95243542 12.11745909 12.95243542 9 11 C5.24656025 8.49770683 1.72324253 6.05845951 0.1875 1.6875 C0.125625 1.130625 0.06375 0.57375 0 0 Z " fill="#398C7C" transform="translate(196,61)"/>
<path d="M0 0 C-1.25 1.5 -1.25 1.5 -3 3 C-4.32 3 -5.64 3 -7 3 C-7.99 5.97 -8.98 8.94 -10 12 C-11.65 11.67 -13.3 11.34 -15 11 C-14.66879228 8.01913056 -14.2130076 6.2785484 -12.375 3.875 C-8.50113351 0.81668435 -4.86723289 -1.62241096 0 0 Z " fill="#1D817A" transform="translate(215,99)"/>
<path d="M0 0 C2.19305243 1.74867075 2.94290357 2.5806131 3.328125 5.41015625 C3.30234375 6.28542969 3.2765625 7.16070312 3.25 8.0625 C3.23453125 8.94035156 3.2190625 9.81820312 3.203125 10.72265625 C3 13 3 13 2 15 C1.34 15 0.68 15 0 15 C-0.33 15.66 -0.66 16.32 -1 17 C-0.9278125 16.10796875 -0.855625 15.2159375 -0.78125 14.296875 C-0.6884375 13.12640625 -0.595625 11.9559375 -0.5 10.75 C-0.4071875 9.58984375 -0.314375 8.4296875 -0.21875 7.234375 C-0.05595356 4.82731342 0 2.41256049 0 0 Z " fill="#BFBA83" transform="translate(201,76)"/>
<path d="M0 0 C5.6868349 2.62469303 10.13594342 5.27188685 13 11 C9.66666667 9.33333333 6.33333333 7.66666667 3 6 C3 5.34 3 4.68 3 4 C2.34 4 1.68 4 1 4 C0.67 2.68 0.34 1.36 0 0 Z " fill="#8AAA81" transform="translate(191,64)"/>
<path d="M0 0 C0.99 0.33 1.98 0.66 3 1 C3 1.66 3 2.32 3 3 C3.66 3 4.32 3 5 3 C6.7143618 4.95927063 8.38405168 6.95880212 10 9 C5.94718288 7.77472971 2.55639236 6.30119506 -1 4 C-0.67 2.68 -0.34 1.36 0 0 Z " fill="#B3B883" transform="translate(189,65)"/>
<path d="M0 0 C0 3 0 3 -2.3125 5.5 C-3.199375 6.325 -4.08625 7.15 -5 8 C-5.598125 8.598125 -6.19625 9.19625 -6.8125 9.8125 C-7.204375 10.204375 -7.59625 10.59625 -8 11 C-8.99 10.67 -9.98 10.34 -11 10 C-7.50640535 6.40365256 -3.88901869 3.16548033 0 0 Z " fill="#C5BD83" transform="translate(199,93)"/>
<path d="M0 0 C2 0 2 0 4.5 2.25 C6.56954228 4.5264965 7.85749293 6.19566446 9 9 C5.00499382 7.6302836 2.19990508 5.74277578 -1 3 C-0.67 2.01 -0.34 1.02 0 0 Z " fill="#629D7F" transform="translate(194,62)"/>
<path d="M0 0 C0.66 0.33 1.32 0.66 2 1 C0.88266271 2.50571657 -0.24410035 4.00444292 -1.375 5.5 C-2.00148437 6.3353125 -2.62796875 7.170625 -3.2734375 8.03125 C-3.84320313 8.6809375 -4.41296875 9.330625 -5 10 C-5.66 10 -6.32 10 -7 10 C-7.33 10.99 -7.66 11.98 -8 13 C-8.66 12.67 -9.32 12.34 -10 12 C-7.88111872 7.98527758 -5.57459994 5.74969226 -2 3 C-1.34 2.01 -0.68 1.02 0 0 Z " fill="#97AE81" transform="translate(202,93)"/>
<path d="M0 0 C0.66 0 1.32 0 2 0 C2.42670076 3.48472283 2.64789556 6.0186845 0.6640625 9.0234375 C-0.83609212 10.74896747 -2.36656784 12.40059768 -4 14 C-4 10.45937709 -2.75650879 8.73666469 -0.875 5.81640625 C0.28932691 3.73541729 0.28932691 3.73541729 0 0 Z " fill="#36897C" transform="translate(216,82)"/>
</svg>
